<svg xmlns="http://www.w3.org/2000/svg" version="1.0" viewBox="0 0 512 512"><path d="M32 1.4C17.3 5.5 5.3 17.6 1.4 32.4.3 36.6 0 70.8 0 234.5 0 450.2-.3 437.6 5.7 448c3.7 6.2 11.1 13.4 16.9 16.3 2.7 1.3 35 12.5 71.9 24.8l67 22.4h9c11 0 17.2-2 25.5-8.1 6.7-4.9 12.1-12.3 15-20.7 1.6-4.6 2-8.2 2-20.2V448h35.3c40.2 0 44.2-.5 57.7-7.1 16.2-7.9 29.3-24.4 33.4-41.9 2.3-9.7 2.3-103.3.1-108.8-6.7-16-29.9-17-38.3-1.7-1.5 2.6-1.8 8.9-2.2 52l-.5 49-2.5 4.5c-1.4 2.4-4.5 5.8-6.8 7.5l-4.4 3-35.9.3-35.9.3-.2-165.3-.3-165.3-3.2-6.7c-5.2-11-12.2-17.5-24.2-22.5l-5.6-2.3 52.7.3 52.6.2 4.4 3c2.3 1.7 5.4 5.1 6.8 7.5l2.5 4.5.5 38.5c.5 37.7.5 38.6 2.7 42.1 1.3 2 4.2 4.9 6.5 6.5 3.7 2.6 5 2.9 11.8 2.9 6.7 0 8.1-.3 11.6-2.7 2.1-1.5 5-4.4 6.4-6.5l2.5-3.7.3-39.7c.3-44.8 0-47.5-6.6-60.9-5.4-11-16.8-22.3-28.2-27.9-15.2-7.4-8-7.1-146-7C64.3.2 35.5.5 32 1.4z"/><path d="M396.5 108.9c-5.1 2.3-10.1 7.9-11.4 12.8-.7 2.3-1.1 16.9-1.1 37V192h-89.6l-5.3 2.6c-9 4.5-13.4 14-11 23.8 1.6 6.7 8.5 13.8 15.1 15.4 3.2.8 18.1 1.2 47.7 1.2H384v33.1c0 23.4.4 34.4 1.2 37.3 2.5 8.1 11.8 14.6 20.9 14.6 8-.1 10.7-2.4 56.7-48.3 46.1-46 49.2-49.7 49.2-57.5 0-9.5.6-8.8-47.9-57.5-30.1-30.1-47-46.4-49.7-47.7-5.1-2.5-12.6-2.5-17.9-.1z"/></svg>